# xmcd CD database file
#
# Track frame offsets:
#	150
#	14354
#	38099
#	61631
#	85365
#	100657
#	110574
#	138079
#	159561
#	171470
#	188887
#
# Disc length: 2958 seconds
#
# Revision: 0
# Processed by: cddbd v1.5.2PL0 Copyright (c) Steve Scherf et al.
# Submitted via: CDex 1.86
#
DISCID=870b8c0b
DTITLE=M for Mississippi - A roadtrip through the birthplace of the blues
DYEAR=2008
DGENRE=Blues
TTITLE0=M for Mississippi - Big George Brock and the Houserockers
TTITLE1=The Wolves are howling - Wesley Jefferson Blues Band
TTITLE2=Ain't it alright - R.L. Boyce and Lightnin' Malcolm
TTITLE3=I'm a Bluesman - Terry Harmonica Bean
TTITLE4=Slow down, slow down - Jimmy Holmes
TTITLE5=Black Mattie's Face - The mississippi marvel and Lightnin' Malcolm
TTITLE6=Hip shakin' woman - James T-model Ford and Stud 
TTITLE7=Give it all to me, Baby - Cadillac John and Bill Abel
TTITLE8=The woman i love - Pat Thomas
TTITLE9=Bring it on home - The robert Bilbo Walker band
TTITLE10=Rosalee - L.C. Ulmer
EXTD=YEAR: 2008
EXTT0=
EXTT1=
EXTT2=
EXTT3=
EXTT4=
EXTT5=
EXTT6=
EXTT7=
EXTT8=
EXTT9=
EXTT10=
PLAYORDER=
